<svg id="Layer_1" data-name="Layer 1" xmlns="http://www.w3.org/2000/svg" viewBox="0 0 521.4 521.4"><defs><style>.cls-1{font-size:80px;font-family:Ikaros-Regular, Ikaros Sans;letter-spacing:0.01em;}.cls-1,.cls-8{fill:#4d4d4d;}.cls-2{letter-spacing:0.02em;}.cls-3{letter-spacing:0.05em;}.cls-4{letter-spacing:0.02em;}.cls-5{letter-spacing:0.02em;}.cls-6{letter-spacing:0em;}.cls-7{letter-spacing:0.05em;}.cls-9{fill:#2980b9;}.cls-10{fill:#fff;}</style></defs><title>LabsLogo</title><text class="cls-1" transform="translate(250.55 244.79) scale(1.07 1)">P<tspan class="cls-2" x="45.44" y="0">E</tspan><tspan class="cls-3" x="88.32" y="0">NN </tspan><tspan class="cls-4"><tspan x="0" y="70">L</tspan><tspan class="cls-5" x="40.32" y="70">A</tspan><tspan class="cls-6" x="96.48" y="70">B</tspan><tspan class="cls-7" x="139.92" y="70">S</tspan></tspan></text><path class="cls-8" d="M88.33,231.76Q88.33,242,85,247t-12.16,9q8.61,3.74,12,9.25t3.42,15.28v33.47q0,11.43,4.81,15.07t19.51,3.64v13.1h-7.35q-19.26,0-27.36-7t-8.11-23.6V281q0-8.94-3.29-13.31t-11.15-6V249.43q14.44-3.32,14.44-18.5V194.34q0-15.17,8.49-21.83t27.23-6.65h7.09V179q-14.7.21-19.51,3.74T88.33,197Z"/><path class="cls-8" d="M194.82,280q0-10,3.27-15.18t12.07-9.15q-8.55-3.74-11.94-9.25t-3.4-15.28V197.67q0-11.43-4.78-15.07T170.68,179v-13.1h7q19.11,0,27.28,7t8.17,23.6v34.3q0,16.43,14.33,19.33v12.27q-14.33,3.33-14.33,18.5v36.59q0,15.17-8.3,21.83t-27.16,6.65h-7V332.8q14.58-.21,19.36-3.74t4.78-14.34Z"/><path class="cls-9" d="M111.64,239.3c-5.7-.37-10.49,0-10.49,2.58v70.9s.32,7.7,15.54,7.7h45.44s17.81.21,17.81-3.85V237.88c0-1.16-2.65-2.07-5.78-2-5.47.13-11,.1-16.37.58-9.78.89-18.3,4.8-28.29,4.82C126.84,241.29,118.57,239.75,111.64,239.3Z"/><circle class="cls-9" cx="138.11" cy="181.29" r="5.29"/><circle class="cls-9" cx="150.26" cy="199.14" r="7.44"/><circle class="cls-9" cx="153.77" cy="156.23" r="6.8" transform="translate(-63.38 126.24) rotate(-37.59)"/><circle class="cls-9" cx="115.63" cy="211.06" r="11.09"/><circle class="cls-9" cx="164.49" cy="222.36" r="4.21"/><circle class="cls-10" cx="124.25" cy="260.5" r="6.46"/><circle class="cls-10" cx="148.08" cy="266.97" r="2.94"/><circle class="cls-10" cx="133.52" cy="281.06" r="2.81"/><circle class="cls-10" cx="164.19" cy="252.54" r="6.49"/><circle class="cls-10" cx="153.49" cy="293.57" r="5.41"/></svg>