<svg id="Layer_1" data-name="Layer 1" xmlns="http://www.w3.org/2000/svg" viewBox="0 0 371.12 371.12"><defs><style>.cls-1{fill:#4d4d4d;}.cls-2{fill:#2980b9;}.cls-3{fill:#fff;}</style></defs><title>LabsLogo</title><path class="cls-1" d="M132.44,169.66q0,10.19-3.29,15.28T117,194q8.61,3.74,12,9.25t3.42,15.28V252q0,11.43,4.81,15.07t19.51,3.64v13.1h-7.35q-19.26,0-27.36-7t-8.11-23.6v-34.3q0-8.94-3.29-13.31t-11.15-6V187.33q14.44-3.32,14.44-18.5V132.24q0-15.17,8.49-21.83t27.23-6.65h7.09v13.1q-14.7.21-19.51,3.74t-4.81,14.35Z"/><path class="cls-1" d="M238.93,217.89q0-10,3.27-15.18t12.07-9.15q-8.55-3.74-11.94-9.25T238.93,169V135.56q0-11.43-4.78-15.07t-19.36-3.64v-13.1h7q19.11,0,27.28,7t8.17,23.6v34.3q0,16.43,14.33,19.33v12.27q-14.33,3.33-14.33,18.5v36.59q0,15.17-8.3,21.83t-27.16,6.65h-7V270.7q14.58-.21,19.36-3.74t4.78-14.34Z"/><path class="cls-2" d="M155.75,177.19c-5.7-.37-10.49,0-10.49,2.58v70.9s.32,7.7,15.54,7.7h45.44s17.81.21,17.81-3.85V175.78c0-1.16-2.65-2.07-5.78-2-5.47.13-11,.1-16.37.58-9.78.89-18.3,4.8-28.29,4.82C171,179.19,162.68,177.65,155.75,177.19Z"/><circle class="cls-2" cx="182.22" cy="119.19" r="5.29"/><circle class="cls-2" cx="194.37" cy="137.04" r="7.44"/><circle class="cls-2" cx="197.87" cy="94.13" r="6.8" transform="translate(-16.34 140.25) rotate(-37.59)"/><circle class="cls-2" cx="159.73" cy="148.96" r="11.09"/><circle class="cls-2" cx="208.6" cy="160.26" r="4.21"/><circle class="cls-3" cx="168.35" cy="198.4" r="6.46"/><circle class="cls-3" cx="192.19" cy="204.86" r="2.94"/><circle class="cls-3" cx="177.63" cy="218.95" r="2.81"/><circle class="cls-3" cx="208.3" cy="190.43" r="6.49"/><circle class="cls-3" cx="197.6" cy="231.47" r="5.41"/></svg>